<?xml version="1.0" encoding="utf-8"?>
<!-- Generator: Adobe Illustrator 19.0.0, SVG Export Plug-In . SVG Version: 6.00 Build 0)  -->
<svg version="1.1" id="Capa_1" xmlns="http://www.w3.org/2000/svg" xmlns:xlink="http://www.w3.org/1999/xlink" x="0px" y="0px"
	 viewBox="-164 42.3 512 512" style="enable-background:new -164 42.3 512 512;" xml:space="preserve">
<style type="text/css">
	.st0{fill:#FFFFFF;}
</style>
<g>
	<path class="st0" d="M166.7,426.3c-5.9,0-10.7,4.8-10.7,10.7v74.7c0,11.8-9.6,21.3-21.3,21.3h-256c-11.8,0-21.3-9.6-21.3-21.3V84.9
		c0-11.8,9.6-21.3,21.3-21.3h256c11.8,0,21.3,9.6,21.3,21.3v74.7c0,5.9,4.8,10.7,10.7,10.7s10.7-4.8,10.7-10.7V84.9
		c0-23.5-19.1-42.7-42.7-42.7h-256c-23.5,0-42.7,19.1-42.7,42.7v426.7c0,23.5,19.1,42.7,42.7,42.7h256c23.5,0,42.7-19.1,42.7-42.7
		v-74.7C177.3,431.1,172.6,426.3,166.7,426.3z"/>
	<path class="st0" d="M344.5,290.4l-128-117.3c-4.4-4-11.1-3.7-15.1,0.7c-4,4.3-3.7,11.1,0.7,15.1l107.8,98.8H-25.3
		c-5.9,0-10.7,4.8-10.7,10.7s4.8,10.7,10.7,10.7h335.2l-107.8,98.8c-4.3,4-4.6,10.7-0.7,15.1c2.1,2.3,5,3.5,7.9,3.5
		c2.6,0,5.2-0.9,7.2-2.8l128-117.3c2.2-2,3.5-4.9,3.5-7.9S346.8,292.4,344.5,290.4z"/>
</g>
</svg>
